<svg width="505" height="503" viewBox="0 0 505 503" fill="none" xmlns="http://www.w3.org/2000/svg">
<path d="M192.631 166.745C152.892 160.273 110.721 172.408 79.9036 203.15C67.7388 215.285 58.818 229.038 52.3301 243.6C80.7146 238.342 113.56 237.533 148.838 241.982C160.191 216.094 174.789 190.611 192.631 166.745Z" stroke="black" stroke-width="7" stroke-miterlimit="10" stroke-linecap="round" stroke-linejoin="round"/>
<path d="M301.71 424.414C289.95 436.549 275.758 445.448 261.16 451.92C268.067 422.029 265.215 374.256 262.782 355.245C288.734 344.323 313.874 329.761 338.204 311.963C344.692 352.009 332.527 393.672 301.71 424.414Z" stroke="black" stroke-width="7" stroke-miterlimit="10" stroke-linecap="round" stroke-linejoin="round"/>
<path d="M231.557 294.568C251.02 312.366 271.701 326.928 294.003 339.468" stroke="black" stroke-width="7" stroke-miterlimit="10" stroke-linecap="round" stroke-linejoin="round"/>
<path d="M165.057 210.432C177.221 232.275 192.225 253.309 210.066 272.725" stroke="black" stroke-width="7" stroke-miterlimit="10" stroke-linecap="round" stroke-linejoin="round"/>
<path d="M158.163 346.345C152.081 340.277 152.081 330.569 158.163 324.502L239.262 243.601C245.344 237.534 255.076 237.534 261.159 243.601C267.241 249.669 267.241 259.377 261.159 265.444L180.06 346.345C173.978 352.412 164.246 352.412 158.163 346.345Z" stroke="black" stroke-width="7" stroke-miterlimit="10" stroke-linecap="round" stroke-linejoin="round"/>
<path d="M209.661 316.412C226.286 331.378 243.723 344.322 261.97 355.648C306.169 336.637 349.151 307.917 387.267 269.894M187.765 294.568C172.761 278.388 159.785 260.59 148.432 242.388C167.895 198.297 196.28 155.42 234.396 117.397C271.306 80.7673 312.768 52.6864 355.558 33.5721M421.861 230.862C477.025 160.227 504.276 78.1283 501.211 3.73214C464.195 2.21465 425.347 8.14709 386.928 21.2365" stroke="black" stroke-width="7" stroke-miterlimit="10" stroke-linecap="round" stroke-linejoin="round"/>
<path d="M404.703 15.8672C415.246 33.2607 427.411 49.0363 442.009 63.1938C456.606 77.7559 472.421 89.8909 489.451 100.003" stroke="black" stroke-width="7" stroke-miterlimit="10" stroke-linecap="round" stroke-linejoin="round"/>
<path d="M68.2076 360.602C67.1167 345.481 54.9098 311.823 26.0257 326.488C5.29825 337.013 9.90456 359.513 21.2986 370.4" stroke="#A0A0A0" stroke-width="5" stroke-linecap="round"/>
<path d="M58.7531 380.926C50.7529 370.764 17.4447 377.148 24.9349 405.967C28.979 421.526 59.4804 429.798 73.6622 421.935" stroke="#A0A0A0" stroke-width="5" stroke-linecap="round"/>
<path d="M76.2068 413.587C81.1765 411.531 90.8977 410.539 90.025 423.023C89.1523 435.507 77.7827 442.983 72.207 445.16C68.0252 446.793 61.7343 444.579 62.0252 434.999" stroke="#A0A0A0" stroke-width="5" stroke-linecap="round"/>
<path d="M100.57 484.355C105.661 489.435 119.261 497.347 132.934 488.347" stroke="#A0A0A0" stroke-width="5" stroke-linecap="round"/>
<path d="M125.298 443.71C121.54 436.572 110.243 426.072 95.1161 441.169C76.207 460.041 102.752 477.097 111.116 475.283" stroke="#A0A0A0" stroke-width="5" stroke-linecap="round"/>
<path d="M152.571 431.733C163.965 434.394 188.143 445.729 182.753 467.661C178.026 486.895 154.025 483.508 141.662 477.46" stroke="#A0A0A0" stroke-width="5" stroke-linecap="round"/>
<path d="M121.298 362.053C120.425 363.505 94.9947 379.352 82.3886 387.094" stroke="#A0A0A0" stroke-width="5" stroke-linecap="round"/>
<path d="M131.115 377.658L100.206 408.506" stroke="#A0A0A0" stroke-width="5" stroke-linecap="round"/>
<path d="M145.299 388.184L121.662 423.386" stroke="#A0A0A0" stroke-width="5" stroke-linecap="round"/>
<path d="M387.892 157.982C387.892 181.27 368.974 200.16 345.623 200.16C322.271 200.16 303.354 181.27 303.354 157.982C303.354 134.695 322.271 115.805 345.623 115.805C368.974 115.805 387.892 134.695 387.892 157.982Z" stroke="#A0A0A0" stroke-width="7"/>
</svg>
