<svg width="20" height="24" viewBox="0 0 20 24" fill="none" xmlns="http://www.w3.org/2000/svg">
<path d="M9.30339 9.40148C9.50533 9.37414 14.394 8.7794 14.1904 4.63217C14.1717 4.25113 14.1195 3.90451 14.0385 3.59029M9.30339 9.40148C11.9829 9.24001 13.3445 8.28275 13.9539 7.1355M9.30339 9.40148C8.97921 9.44538 8.64487 9.44188 8.31412 9.39412M14.0385 3.59029C13.9371 3.1969 13.7905 2.8543 13.6074 2.55856M14.0385 3.59029C14.4036 4.51244 14.5947 5.92903 13.9539 7.1355M13.6074 2.55856C12.1065 0.133973 8.15933 0.858312 6.65628 2.55856C6.0665 3.22629 4.83043 4.91967 5.4328 7.0364C5.8104 8.36328 7.03545 9.20948 8.31412 9.39412M13.6074 2.55856C14.1785 3.29024 15.0071 5.00372 14.2987 6.55765M13.9539 7.1355C14.0956 6.94695 14.2094 6.75356 14.2987 6.55765M8.31412 9.39412C10.005 9.66237 13.569 9.47062 14.2987 6.55765M18.1817 14.9725L18.5452 15.6356C18.9847 16.4372 19.1845 17.3672 18.7826 18.1851M18.1817 14.9725C17.394 13.5357 15.7838 12.6281 14.0225 12.6281H5.81996C4.05862 12.6281 2.44845 13.5357 1.66075 14.9725L1.48235 15.2979C0.930802 16.3039 0.795875 17.4917 1.37589 18.4843C3.14616 21.5139 6.207 22.8099 9.30339 22.8876M18.1817 14.9725C18.9901 17.1121 18.3461 21.6905 9.30339 22.8876M18.7826 18.1851C17.3757 21.0487 13.3098 22.9881 9.30339 22.8876M18.7826 18.1851C18.3907 20.0831 15.9461 23.6807 9.30339 22.8876" stroke="white" stroke-linecap="round"/>
</svg>
