<svg width="470" height="501" viewBox="0 0 470 501" fill="none" xmlns="http://www.w3.org/2000/svg">
<path d="M286.743 67.9378C291.75 67.5157 303.426 70.2208 311.447 84.0175C311.85 84.7122 312.952 84.7108 313.348 84.0011C321.363 69.612 331.455 55.5854 361.552 72.0621C362.475 72.5675 363.712 71.5453 363.311 70.6216C358.769 60.1763 357.376 42.4673 378.969 33.0528C379.866 32.6617 379.816 31.4122 378.874 31.1573L376.064 30.3972C375 30.1093 375.143 28.8035 376.255 28.7527C382.337 28.475 389.208 29.0976 386.429 32.2223C382.779 36.325 381.882 38.919 382.771 43.2023" stroke="black" stroke-width="5" stroke-linecap="round"/>
<path d="M37.5541 232.286C36.6619 229.336 40.5621 227.426 42.6957 229.768V229.768C44.3658 231.602 47.4613 230.881 47.9081 228.555L47.9689 228.239C48.53 225.317 52.9132 225.299 53.7232 228.215V228.215C54.3631 230.518 57.5146 231.175 58.9693 229.308L59.2276 228.977C61.0439 226.645 65.0199 228.428 64.4008 231.296V231.296C63.908 233.578 66.4977 235.449 68.6524 234.367L68.8373 234.274C71.5424 232.915 74.4101 236.107 72.5432 238.398V238.398C71.0562 240.224 72.6074 242.937 75.0747 242.826V242.826C78.1723 242.687 79.4104 246.677 76.6746 247.982L76.4876 248.071C74.3085 249.111 74.5228 252.145 76.8394 253.052V253.052C79.7497 254.192 79.1051 258.236 76.0008 258.315L75.5593 258.326C73.0729 258.388 71.8868 261.169 73.5848 262.955V262.955C75.7341 265.215 73.2517 268.558 70.326 267.344L70.0091 267.212C67.6797 266.245 65.2946 268.208 65.993 270.518V270.518C66.8851 273.468 62.9849 275.377 60.8514 273.035V273.035C59.1813 271.202 56.0857 271.922 55.639 274.248L55.5782 274.565C55.017 277.486 50.6339 277.505 49.8239 274.589V274.589C49.184 272.285 46.0325 271.628 44.5778 273.495L44.3195 273.827C42.5032 276.158 38.5272 274.376 39.1463 271.508V271.508C39.6391 269.225 37.0494 267.355 34.8947 268.437L34.7098 268.53C32.0047 269.889 29.137 266.697 31.0039 264.405V264.405C32.4909 262.58 30.9397 259.867 28.4724 259.977V259.977C25.3748 260.116 24.1367 256.127 26.8725 254.822L27.0595 254.732C29.2386 253.693 29.0243 250.659 26.7077 249.752V249.752C23.7974 248.612 24.442 244.567 27.5463 244.489L27.9878 244.478C30.4742 244.415 31.6603 241.635 29.9622 239.849V239.849C27.813 237.589 30.2954 234.246 33.2211 235.46L33.538 235.592C35.8674 236.558 38.2525 234.595 37.5541 232.286V232.286Z" fill="#A0A0A0"/>
<path d="M42.7909 246.175C43.5591 247.518 43.0672 249.358 41.3718 250.188C39.6763 251.018 37.7566 250.36 36.9883 249.016C36.2201 247.672 36.712 245.833 38.4074 245.003C40.1029 244.173 42.0226 244.831 42.7909 246.175Z" stroke="black" stroke-width="5"/>
<path d="M67.1009 253.522C67.8692 254.866 67.3773 256.705 65.6818 257.535C63.9864 258.366 62.0666 257.707 61.2984 256.364C60.5302 255.02 61.022 253.181 62.7175 252.35C64.4129 251.52 66.3327 252.179 67.1009 253.522Z" stroke="black" stroke-width="5"/>
<path d="M51.1765 237.788L52.9128 264.75" stroke="black" stroke-width="5" stroke-linecap="round"/>
<path d="M467.5 155.979C467.5 171.942 453.323 185.242 435.371 185.242C417.419 185.242 403.242 171.942 403.242 155.979C403.242 140.017 417.419 126.716 435.371 126.716C453.323 126.716 467.5 140.017 467.5 155.979Z" stroke="black" stroke-width="5"/>
<path d="M435.677 170.159V174.697" stroke="black" stroke-width="5" stroke-linecap="round"/>
<path d="M435.677 141.799V137.262" stroke="black" stroke-width="5" stroke-linecap="round"/>
<path d="M444.258 143.726C442.081 142.725 438.776 141.788 435.686 141.799C431.961 141.812 428.549 143.202 427.799 147.513C426.81 153.198 434.306 155.239 438.772 157.293C444.944 160.133 444.888 165.456 441.172 168.021C439.501 169.174 437.603 169.807 435.686 170.046C432.883 170.396 430.039 169.904 427.799 168.967" stroke="black" stroke-width="5" stroke-linecap="round"/>
<path d="M251.502 87.9161C246.19 71.5619 247.16 38.3084 293.485 35.4502C339.453 32.6142 346.501 33.1808 354.162 34.3151" stroke="black" stroke-width="5" stroke-linecap="round"/>
<path d="M164.163 394.203C178.238 384.743 209.22 367.486 220.484 374.137C234.559 382.45 225.573 383.596 218.384 381.876" stroke="black" stroke-width="5" stroke-linecap="round"/>
<path d="M205.507 382.152C212.759 381.147 227.388 381.274 227.873 389.832C228.147 394.822 226.66 393.992 223.941 392.434C221.991 391.319 219.409 389.832 216.384 389.832H203.389" stroke="black" stroke-width="5" stroke-linecap="round"/>
<path d="M203.389 390.232H216.463C219.506 390.232 222.104 391.751 224.065 392.889C225.984 396.11 227.405 402.05 217.682 400.033C207.959 398.017 204.099 398.634 203.389 399.194" stroke="black" stroke-width="5" stroke-linecap="round"/>
<path d="M217.85 399.875C221.066 403.275 224.775 409.678 213.93 408.092C203.086 406.505 194.553 411.397 191.642 414.041C186.724 417.063 175.071 420.84 167.841 411.775" stroke="black" stroke-width="5" stroke-linecap="round"/>
<path d="M113.72 408.593C164.68 382.447 164.732 407.071 160.427 422.088C154.058 437.27 122.466 453.993 108.283 455.993C88.2765 460.248 52.8507 455.206 71.2235 401.002C94.1948 333.248 104.586 283.767 181.324 270.553" stroke="black" stroke-width="5" stroke-linecap="round"/>
<path d="M141.486 349.961C141.486 375.548 139.868 374.945 128.003 398.173" stroke="black" stroke-width="5" stroke-linecap="round"/>
<path d="M245.679 363.574V356.2" stroke="black" stroke-width="5" stroke-linecap="round"/>
<path d="M254.872 363.007L257.937 353.932" stroke="black" stroke-width="5" stroke-linecap="round"/>
<path d="M264.066 365.276L271.42 349.394" stroke="black" stroke-width="5" stroke-linecap="round"/>
<path d="M122.487 454.326C124.62 476.456 125.531 475.056 129.192 487.661C166.158 497.746 247.945 509.343 279.389 475.056" stroke="black" stroke-width="5" stroke-linecap="round"/>
<path d="M160.486 321.601L161.643 319.979C168.613 310.245 182.054 306.359 193.818 310.68C204.372 314.555 216.438 311.855 223.877 303.952L233.421 293.808" stroke="black" stroke-width="5" stroke-linecap="round"/>
<path d="M226.736 270.049C229.417 263.086 226.965 258.4 224.587 257.508C210.253 269.292 188.512 264.917 180.458 257.775C177.589 260.132 179.259 267.104 180.458 269.246C195.982 284.672 218.077 276.031 226.736 270.049Z" fill="black"/>
<path d="M268.978 155.546C262.298 177.801 258.947 179.772 249.23 189.632C249.23 179.888 247.419 163.533 247.419 156.722C215.578 156.722 188.711 144.674 179.246 138.649C179.591 159.08 158.923 172.439 158.923 172.439C158.923 172.439 161.886 180.69 163.582 199.156C164.943 213.93 161.038 211.075 158.923 207.8C152.829 189.569 142.84 194.441 138.599 199.156C86.6449 120.897 166.545 105.776 181.79 107.217C193.308 98.1014 209.369 90.9581 220.657 89.9103C261.387 86.1317 279.815 119.462 268.978 155.546Z" fill="black"/>
<path d="M159.26 221.726C164.771 252.852 201.743 275.234 228.427 250.019C255.11 224.805 249.767 178.651 246.918 157.114" stroke="black" stroke-width="5" stroke-linecap="round"/>
<path d="M138.296 196.818C135.059 204.402 138.096 221.207 159.26 221.207" stroke="black" stroke-width="5" stroke-linecap="round"/>
<path d="M148.959 201.355C148.584 202.759 148.884 206.088 153.131 208.162" stroke="black" stroke-width="5" stroke-linecap="round"/>
<path d="M246.904 217.237C253.884 214.517 258.811 204.442 256.915 188.31" stroke="black" stroke-width="5" stroke-linecap="round"/>
<path d="M206.454 236.139C212.963 237.953 212.551 232.961 217.486 228.581" stroke="black" stroke-width="5" stroke-linecap="round"/>
<path d="M227.599 200.788C230.137 200.788 232.195 198.756 232.195 196.25C232.195 193.744 230.137 191.713 227.599 191.713C225.06 191.713 223.002 193.744 223.002 196.25C223.002 198.756 225.06 200.788 227.599 200.788Z" fill="black"/>
<path d="M187.147 200.788C190.024 200.788 192.357 199.01 192.357 196.818C192.357 194.625 190.024 192.847 187.147 192.847C184.27 192.847 181.938 194.625 181.938 196.818C181.938 199.01 184.27 200.788 187.147 200.788Z" fill="black"/>
<path d="M177.035 187.175C178.043 184.779 182.404 180.346 191.744 181.784" stroke="black" stroke-width="5" stroke-linecap="round"/>
<path d="M219.937 182.07C222.165 180.786 228.227 178.989 234.647 182.07" stroke="black" stroke-width="5" stroke-linecap="round"/>
<path d="M204.491 195.116C203.786 200.536 203.296 211.527 207.066 212.132" stroke="black" stroke-width="5" stroke-linecap="round"/>
<path d="M195.904 376.052L180.096 351.474C178.861 349.553 179.562 347.064 181.654 345.953C183.695 344.871 186.289 345.5 187.492 347.367L204.002 372.933" stroke="black" stroke-width="5" stroke-linecap="round"/>
<path d="M199.711 461.699C208.117 436.552 227.69 387.732 240.121 389.127C240.686 389.191 241.25 389.34 241.815 389.414L288.582 395.476" stroke="black" stroke-width="5" stroke-linecap="round"/>
<path d="M295.324 405.547L291.033 417.458" stroke="black" stroke-width="5" stroke-linecap="round"/>
<path d="M241.246 395.337C232.278 400.404 218.937 435.172 211.155 458.568C209.456 463.667 213.211 468.884 218.948 469.549L263.271 474.676C267.802 475.2 272.081 472.666 273.455 468.655L276.937 458.465" stroke="black" stroke-width="5" stroke-linecap="round"/>
<path d="M248.433 399.874C251.392 398.88 257.545 393.014 255.788 387.33C255.49 386.343 254.947 385.362 254.106 384.412C248.433 377.995 238.661 384.413 241.184 389.664" stroke="black" stroke-width="5" stroke-linecap="round"/>
<path d="M255.485 387.488C258.503 384.072 266.662 382.512 270.927 389.244C274.893 397.442 267.27 402.125 262.696 402.711" stroke="black" stroke-width="5" stroke-linecap="round"/>
<path d="M271.421 389.079C274.608 386.829 283.137 383.795 288.073 389.667C293.926 398.767 283.449 404.639 279.127 403.758" stroke="black" stroke-width="5" stroke-linecap="round"/>
<path d="M287.969 389.689C292.037 387.479 299.264 386.518 302.043 392.283C304.822 398.05 297.975 405.546 291.403 405.546" stroke="black" stroke-width="5" stroke-linecap="round"/>
<path d="M264.75 437.31C263.078 439.426 263.425 444.884 278.163 449.788" stroke="black" stroke-width="5" stroke-linecap="round"/>
<path d="M303.291 426.061C287.36 423.222 271.011 422.169 264.817 421.998C261.494 421.907 257.805 424.532 259.66 427.504C260.174 428.264 261.788 429.956 264.125 430.637C274.05 433.629 278.284 433.895 282.655 433.907" stroke="black" stroke-width="5" stroke-linecap="round"/>
<path d="M282.453 433.782C278.081 433.771 273.845 433.504 263.916 430.503C261.652 431.261 261.358 434.869 264.944 437.121C267.208 438.549 271.308 440.3 278.081 442.415" stroke="black" stroke-width="5" stroke-linecap="round"/>
<path d="M227.292 270.553C276.829 288.758 316.332 342.25 311.466 415.627C310.756 425.989 304.961 447.442 287.46 450.355" stroke="black" stroke-width="5" stroke-linecap="round"/>
<path d="M269.888 165.622C279.49 163.164 300.962 160.63 310.033 170.159C321.372 182.07 315.856 185.757 328.726 170.159C339.023 157.681 380.619 155.696 400.129 156.263" stroke="black" stroke-width="5" stroke-linecap="round"/>
<path d="M449.162 124.499C447.936 121.757 446.852 111.738 449.162 104.08C452.839 91.8851 464.791 47.0772 451.92 37.1504C435.274 24.3119 423.726 30.3445 397.678 32.8967" stroke="black" stroke-width="5" stroke-linecap="round"/>
<path d="M294.435 102.726L295.596 137.638C295.615 138.206 296.103 138.645 296.67 138.602L313.659 137.334C314.199 137.294 314.609 136.83 314.583 136.288L312.844 100.619C312.816 100.038 312.3 99.6038 311.723 99.675L295.312 101.7C294.798 101.763 294.418 102.208 294.435 102.726Z" stroke="black" stroke-width="5" stroke-linecap="round"/>
<path d="M326.888 93.8129V136.964C326.888 137.659 327.58 138.142 328.233 137.903L344.035 132.104C344.415 131.964 344.673 131.61 344.689 131.206L346.155 95.1218C346.177 94.5827 345.767 94.1234 345.229 94.0839L327.961 92.8156C327.382 92.773 326.888 93.2318 326.888 93.8129Z" stroke="black" stroke-width="5" stroke-linecap="round"/>
<path d="M361.517 83.5273V131.724C361.517 132.277 361.964 132.724 362.517 132.724H379.516C380.069 132.724 380.516 132.277 380.516 131.724V83.5273C380.516 82.9751 380.069 82.5273 379.516 82.5273H362.517C361.964 82.5273 361.517 82.9751 361.517 83.5273Z" stroke="black" stroke-width="5" stroke-linecap="round"/>
<path d="M398.267 73.542L396.793 130.545C396.776 131.21 397.401 131.706 398.045 131.539L415.71 126.941C416.109 126.837 416.403 126.499 416.451 126.089L422.672 72.9062C422.743 72.2981 422.256 71.7694 421.644 71.7907L399.232 72.5685C398.703 72.5868 398.28 73.0134 398.267 73.542Z" stroke="black" stroke-width="5" stroke-linecap="round"/>
<path d="M133.203 66.3621C132.774 72.8527 132.483 86.1369 134.744 87.3485" stroke="#A0A0A0" stroke-width="5" stroke-linecap="round"/>
<path d="M121.261 79.4075L144.551 76.5715" stroke="#A0A0A0" stroke-width="5" stroke-linecap="round"/>
<path d="M315.233 256.94C314.805 263.431 314.514 276.715 316.775 277.927" stroke="#A0A0A0" stroke-width="5" stroke-linecap="round"/>
<path d="M303.291 269.986L326.581 267.15" stroke="#A0A0A0" stroke-width="5" stroke-linecap="round"/>
<path d="M409.887 318.198C409.887 318.485 409.767 318.945 409.175 319.57C408.57 320.209 407.578 320.898 406.161 321.53C403.334 322.793 399.253 323.639 394.613 323.639C389.972 323.639 385.892 322.793 383.065 321.53C381.648 320.898 380.656 320.209 380.051 319.57C379.459 318.945 379.339 318.485 379.339 318.198C379.339 317.911 379.459 317.451 380.051 316.826C380.656 316.187 381.648 315.498 383.065 314.866C385.892 313.603 389.972 312.757 394.613 312.757C399.253 312.757 403.334 313.603 406.161 314.866C407.578 315.498 408.57 316.187 409.175 316.826C409.767 317.451 409.887 317.911 409.887 318.198Z" stroke="#A0A0A0" stroke-width="5"/>
<path d="M378.065 318.482V328.501C378.065 328.801 378.197 329.085 378.435 329.267C383.11 332.858 394.974 337.993 408.097 331.811" stroke="#A0A0A0" stroke-width="5" stroke-linecap="round"/>
<path d="M72.1805 125.351C72.1805 125.638 72.0605 126.097 71.4682 126.723C70.8636 127.361 69.8713 128.05 68.4548 128.683C65.6278 129.946 61.5469 130.791 56.9064 130.791C52.2658 130.791 48.185 129.946 45.358 128.683C43.9415 128.05 42.9492 127.361 42.3446 126.723C41.7523 126.097 41.6323 125.638 41.6323 125.351C41.6323 125.063 41.7523 124.604 42.3446 123.978C42.9492 123.34 43.9415 122.651 45.358 122.018C48.185 120.755 52.2658 119.91 56.9064 119.91C61.5469 119.91 65.6278 120.755 68.4548 122.018C69.8713 122.651 70.8636 123.34 71.4682 123.978C72.0605 124.604 72.1805 125.063 72.1805 125.351Z" stroke="#A0A0A0" stroke-width="5"/>
<path d="M40.3579 125.634V135.654C40.3579 135.954 40.4896 136.238 40.7275 136.42C45.4026 140.011 57.2674 145.146 70.3899 138.964" stroke="#A0A0A0" stroke-width="5" stroke-linecap="round"/>
<path d="M385.426 223.717C384.864 224.251 383.283 224.744 380.147 223.774C377.204 222.863 373.675 220.854 370.376 217.88C367.077 214.905 364.814 211.694 363.753 208.995C362.623 206.119 363.115 204.643 363.676 204.11C364.238 203.576 365.818 203.083 368.955 204.053C371.898 204.964 375.426 206.973 378.726 209.947C382.025 212.922 384.288 216.133 385.348 218.832C386.478 221.708 385.987 223.184 385.426 223.717Z" stroke="#A0A0A0" stroke-width="5"/>
<path d="M362.483 203.43L354.898 210.636C354.69 210.833 354.582 211.101 354.613 211.375C355.246 216.96 359.867 228.321 373.945 232.371" stroke="#A0A0A0" stroke-width="5" stroke-linecap="round"/>
</svg>
